<svg width="367" height="689" xmlns="http://www.w3.org/2000/svg" xmlns:xlink="http://www.w3.org/1999/xlink" overflow="hidden"><defs><clipPath id="clip0"><rect x="870" y="-2" width="367" height="689"/></clipPath><clipPath id="clip1"><rect x="953" y="2" width="64" height="684"/></clipPath><clipPath id="clip2"><rect x="953" y="2" width="64" height="684"/></clipPath><clipPath id="clip3"><rect x="953" y="2" width="64" height="684"/></clipPath><clipPath id="clip4"><rect x="953" y="63" width="64" height="223"/></clipPath><clipPath id="clip5"><rect x="953" y="402" width="64" height="223"/></clipPath></defs><g clip-path="url(#clip0)" transform="translate(-870 2)"><rect x="1022.5" y="0.500061" width="75.9999" height="680" stroke="#000000" stroke-width="3" stroke-miterlimit="8" fill="none"/><rect x="1098.5" y="0.5" width="75" height="680" stroke="#000000" stroke-width="3" stroke-miterlimit="8" fill="none"/><text font-family="Cambria Math,Cambria Math_MSFontService,sans-serif" font-weight="400" font-size="32" transform="matrix(-1.83697e-16 -1 1 -1.83697e-16 1071.13 422)">𝑛<tspan font-size="23" x="19" y="-11.7201">0</tspan><tspan font-size="23" x="32" y="-11.7201">.</tspan><tspan font-size="23" x="37" y="-11.7201">75</tspan><tspan font-size="32" x="72" y="1.32262e-14">×</tspan><tspan font-size="32" x="102" y="1.87371e-14">𝑛</tspan><tspan font-size="37" x="66" y="155.181">⋯</tspan></text><text font-family="Cambria Math,Cambria Math_MSFontService,sans-serif" font-weight="400" font-size="32" transform="translate(874.873 355)">𝑛<tspan font-size="32" x="25.9933" y="0">×</tspan><tspan font-size="32" x="55.94" y="0">𝑛</tspan></text><rect x="1098.5" y="454.5" width="37" height="226" stroke="#000000" stroke-width="2.66667" stroke-miterlimit="8" fill="#92D050"/><rect x="1098.5" y="227.5" width="37" height="227" stroke="#000000" stroke-width="2.66667" stroke-miterlimit="8" fill="#92D050"/><rect x="1098.5" y="0.500046" width="37" height="227" stroke="#000000" stroke-width="2.66667" stroke-miterlimit="8" fill="#92D050"/><rect x="1135.5" y="454.5" width="38" height="226" stroke="#000000" stroke-width="2.66667" stroke-miterlimit="8" fill="#92D050"/><rect x="1135.5" y="227.5" width="38" height="227" stroke="#000000" stroke-width="2.66667" stroke-miterlimit="8" fill="#92D050"/><rect x="1135.5" y="0.5" width="38" height="227" stroke="#000000" stroke-width="2.66667" stroke-miterlimit="8" fill="#92D050"/><text font-family="Cambria Math,Cambria Math_MSFontService,sans-serif" font-weight="400" font-size="32" transform="matrix(-1.83697e-16 -1 1 -1.83697e-16 1131.09 644)">𝑛<tspan font-size="23" x="19" y="-11.72">0</tspan><tspan font-size="23" x="32" y="-11.72">.</tspan><tspan font-size="23" x="37" y="-11.72">5</tspan><tspan font-size="32" x="59" y="1.08381e-14">×</tspan><tspan font-size="32" x="89" y="1.6349e-14">𝑛</tspan><tspan font-size="23" x="108" y="-11.72">0</tspan><tspan font-size="23" x="121" y="-11.72">.</tspan><tspan font-size="23" x="126" y="-11.72">75</tspan></text><g clip-path="url(#clip1)"><g clip-path="url(#clip2)"><g clip-path="url(#clip3)"><path d="M51.2576 64.7199 51.6895 64.288 51.6895 63.0641 51.6895 62.2722C51.6895 61.7443 51.3536 61.2883 50.6817 60.9044 46.9861 58.3607 43.9385 55.0971 41.5388 51.1136 39.1391 47.1301 37.5313 42.6907 36.7154 37.7953 36.7154 37.7473 36.6914 37.6513 36.6434 37.5073 36.4514 36.1635 36.3315 32.036 36.2835 25.1249 36.2835 24.9329 36.2835 24.5729 36.2835 24.045 36.2835 21.3093 36.2835 19.0536 36.2835 17.2778 36.2835 5.66329 36.2595-0.191976 36.2115-0.287964 36.1635-0.47994 35.9475-0.599925 35.5636-0.647919 35.1796-0.695913 33.9798-0.71991 31.964-0.71991 29.4683-0.71991 28.1725-0.695913 28.0765-0.647919 27.9325-0.599925 27.8365-0.503937 27.7885-0.359955 27.6925 0.119985 27.6445 5.75928 27.6445 16.5579 27.6445 18.0937 27.6445 20.0615 27.6445 22.4612 27.6445 24.8609 27.6205 26.5407 27.5726 27.5006 27.5726 32.252 27.7885 35.9235 28.2205 38.5152 28.6524 41.1069 29.6603 44.0105 31.2441 47.2261 34.8916 54.4252 40.4109 60.0885 47.802 64.216L48.7379 64.7199 51.2576 64.7199Z" transform="matrix(1 0 0 -1.00195 953 69.8278)"/><path d="M51.6895-64.288 51.2576-64.7199 48.7379-64.7199 47.946-64.288C41.9948-61.0244 37.2433-56.7289 33.6918-51.4016 30.1402-46.0742 28.1485-40.363 27.7165-34.2677 27.6685-33.7878 27.6445-29.1324 27.6445-20.3015 27.6445-6.62317 27.6685 0.263967 27.7165 0.359955L28.0045 0.647919C28.1485 0.695913 29.4683 0.71991 31.964 0.71991 33.9798 0.71991 35.1796 0.695913 35.5636 0.647919 35.9475 0.599925 36.1635 0.47994 36.2115 0.287964 36.2595 0.191976 36.2835-5.6393 36.2835-17.2059L36.2835-22.3172 36.2835-26.3487C36.2835-31.3401 36.3795-34.8676 36.5714-36.9314 36.7634-38.9951 37.2913-41.2988 38.1552-43.8425 38.9231-46.1462 39.859-48.282 40.9629-50.2497 42.0667-52.2175 43.2186-53.8733 44.4184-55.2171 45.6183-56.5609 46.6742-57.6408 47.5861-58.4567 48.4979-59.2726 49.4098-60.0165 50.3217-60.6884 51.2336-61.3603 51.6655-61.6723 51.6175-61.6243 51.5696-61.5763 51.5936-62.0562 51.6895-63.0641L51.6895-64.288Z" transform="matrix(1 0 0 -1.00195 953 618.172)"/><path d="M28.0045 83.4376C28.1005 83.4856 29.6843 83.5096 32.7559 83.5096 34.7237 83.5096 35.7555 83.4856 35.8515 83.4376 35.9955 83.3896 36.0915 83.2936 36.1395 83.1496 36.2355 82.6697 36.2835 77.1264 36.2835 66.5197 36.2835 55.3371 36.2595 49.5298 36.2115 49.0979 35.7795 42.7147 33.9078 36.8834 30.5962 31.6041 27.2846 26.3247 22.9171 22.0052 17.4938 18.6457L16.4859 17.9978 17.4938 17.3498C22.5812 14.1822 26.8526 9.98275 30.3082 4.75141 33.7638-0.47994 35.7315-6.4312 36.2115-13.1024 36.2595-13.5343 36.2835-19.3416 36.2835-30.5242 36.2835-38.9711 36.2835-43.8905 36.2835-45.2823 36.2835-46.6742 36.1635-47.3941 35.9235-47.4421L35.8515-47.4421C35.7555-47.4901 34.4597-47.5141 31.964-47.5141 29.4683-47.5141 28.1725-47.4901 28.0765-47.4421 27.9325-47.3941 27.8365-47.2981 27.7885-47.1541 27.6925-46.6742 27.6445-41.1549 27.6445-30.5962L27.6445-20.3015C27.6445-15.2141 27.4766-11.2306 27.1406-8.35096 26.8047-5.47132 25.9648-2.44769 24.6209 0.71991 23.805 2.83165 22.8211 4.7994 21.6693 6.62317 20.5174 8.44694 19.4136 9.95876 18.3577 11.1586 17.3018 12.3585 16.318 13.3423 15.4061 14.1102 14.4942 14.8781 13.7503 15.5021 13.1744 15.982 12.5984 16.4619 12.3105 16.7019 12.3105 16.7019 12.2625 16.7499 12.2385 17.1819 12.2385 17.9978 12.2385 18.8137 12.2625 19.2456 12.3105 19.2936 12.3105 19.3416 12.7904 19.7255 13.7503 20.4454 14.7102 21.1654 15.886 22.2932 17.2778 23.829 18.6697 25.3648 20.1095 27.1886 21.5973 29.3003 23.0851 31.4121 24.381 34.2197 25.4848 37.7233 26.5887 41.2268 27.2846 44.9464 27.5726 48.8819 27.6205 49.4578 27.6445 55.3611 27.6445 66.5917 27.6445 77.4863 27.6685 83.0056 27.7165 83.1496L28.0045 83.4376Z" transform="matrix(1 0 0 -1.00195 953 362.033)"/><g clip-path="url(#clip4)"><path d="M27.6445 10.7987 27.6445 19.1496C27.6445 20.9734 27.7645 22.0052 28.0045 22.2452 28.1005 22.2932 29.6843 22.3172 32.7559 22.3172 34.7237 22.3172 35.7555 22.2932 35.8515 22.2452 36.0435 22.1972 36.1635 21.9333 36.2115 21.4533 36.2595 20.7334 36.2835 17.1819 36.2835 10.7987 36.2835 5.13536 36.2835 1.82377 36.2835 0.863892 36.2835-0.095988 36.1635-0.599925 35.9235-0.647919L35.8515-0.647919C35.7555-0.695913 34.4597-0.71991 31.964-0.71991 29.4683-0.71991 28.1725-0.695913 28.0765-0.647919 27.8845-0.599925 27.7645-0.335958 27.7165 0.143982 27.6685 0.863892 27.6445 4.41545 27.6445 10.7987Z" transform="matrix(1 0 0 -15.1816 953 324.741)"/></g><g clip-path="url(#clip5)"><path d="M27.6445 10.7987 27.6445 19.1496C27.6445 20.9734 27.7645 22.0052 28.0045 22.2452 28.1005 22.2932 29.6843 22.3172 32.7559 22.3172 34.7237 22.3172 35.7555 22.2932 35.8515 22.2452 36.0435 22.1972 36.1635 21.9333 36.2115 21.4533 36.2595 20.7334 36.2835 17.1819 36.2835 10.7987 36.2835 5.13536 36.2835 1.82377 36.2835 0.863892 36.2835-0.095988 36.1635-0.599925 35.9235-0.647919L35.8515-0.647919C35.7555-0.695913 34.4597-0.71991 31.964-0.71991 29.4683-0.71991 28.1725-0.695913 28.0765-0.647919 27.8845-0.599925 27.7645-0.335958 27.7165 0.143982 27.6685 0.863892 27.6445 4.41545 27.6445 10.7987Z" transform="matrix(1 0 0 -15.1816 953 663.832)"/></g></g></g></g></g></svg>