<svg width="420" height="420" xmlns="http://www.w3.org/2000/svg" xmlns:xlink="http://www.w3.org/1999/xlink" overflow="hidden"><defs><clipPath id="clip0"><rect x="672" y="21" width="420" height="420"/></clipPath></defs><g clip-path="url(#clip0)" transform="translate(-672 -21)"><rect x="674.5" y="231.5" width="207" height="208" stroke="#000000" stroke-width="3" stroke-miterlimit="8" fill="#FFC000"/><rect x="881.5" y="231.5" width="208" height="208" stroke="#000000" stroke-width="3" stroke-miterlimit="8" fill="#FFC000"/><rect x="674.5" y="23.5001" width="207" height="208" stroke="#000000" stroke-width="3" stroke-miterlimit="8" fill="#FFC000"/><rect x="881.5" y="23.5001" width="208" height="208" stroke="#000000" stroke-width="3" stroke-miterlimit="8" fill="#FFC000"/><rect x="881.5" y="23.5001" width="104" height="104" stroke="#000000" stroke-width="3" stroke-miterlimit="8" fill="#00B0F0"/><rect x="881.5" y="127.5" width="104" height="104" stroke="#000000" stroke-width="3" stroke-miterlimit="8" fill="#00B0F0"/><rect x="985.5" y="127.5" width="104" height="104" stroke="#000000" stroke-width="3" stroke-miterlimit="8" fill="#00B0F0"/><rect x="985.5" y="23.5001" width="104" height="104" stroke="#000000" stroke-width="3" stroke-miterlimit="8" fill="#00B0F0"/><text font-family="Cambria Math,Cambria Math_MSFontService,sans-serif" font-weight="400" font-size="32" transform="translate(696.557 355)">𝑛<tspan font-size="23" x="18.88" y="-12">0</tspan><tspan font-size="23" x="32.38" y="-12">.</tspan><tspan font-size="23" x="37.2133" y="-12">75</tspan><tspan font-size="32" x="72.6533" y="0">×</tspan><tspan font-size="32" x="102.6" y="0">𝑛</tspan><tspan font-size="23" x="121.48" y="-12">0</tspan><tspan font-size="23" x="134.98" y="-12">.</tspan><tspan font-size="23" x="139.813" y="-12">75</tspan><tspan font-size="19" x="196.009" y="-164">𝑛</tspan><tspan font-size="14" x="206.996" y="-171">0</tspan><tspan font-size="14" x="214.829" y="-171">.</tspan><tspan font-size="14" x="217.662" y="-171">5</tspan><tspan font-size="19" x="230.416" y="-164">×</tspan><tspan font-size="19" x="247.896" y="-164">𝑛</tspan><tspan font-size="14" x="258.882" y="-171">0</tspan><tspan font-size="14" x="266.716" y="-171">.</tspan><tspan font-size="14" x="269.549" y="-171">5</tspan></text></g></svg>