<svg width="644" height="581" xmlns="http://www.w3.org/2000/svg" xmlns:xlink="http://www.w3.org/1999/xlink" overflow="hidden"><defs><clipPath id="clip0"><rect x="129" y="82" width="644" height="581"/></clipPath></defs><g clip-path="url(#clip0)" transform="translate(-129 -82)"><rect x="207.5" y="125.5" width="515" height="475" stroke="#000000" stroke-width="2.66667" stroke-miterlimit="8" fill="#7030A0"/><rect x="208.5" y="411.5" width="189" height="189" stroke="#000000" stroke-width="3" stroke-miterlimit="8" fill="#FFC000"/><text font-family="Cambria Math,Cambria Math_MSFontService,sans-serif" font-weight="400" font-size="24" transform="translate(153.453 513)">ğ‘›<tspan font-size="18" x="14.2467" y="-8">0</tspan><tspan font-size="18" x="24.4133" y="-8">.</tspan><tspan font-size="18" x="28.08" y="-8">75</tspan><tspan font-size="24" x="123.995" y="114">ğ‘›</tspan><tspan font-size="18" x="138.241" y="106">0</tspan><tspan font-size="18" x="148.408" y="106">.</tspan><tspan font-size="18" x="152.075" y="106">75</tspan></text><rect x="397.5" y="411.5" width="189" height="189" stroke="#000000" stroke-width="3" stroke-miterlimit="8" fill="#FFC000"/><rect x="208.5" y="222.5" width="189" height="189" stroke="#000000" stroke-width="3" stroke-miterlimit="8" fill="#FFC000"/><rect x="397.5" y="222.5" width="189" height="189" stroke="#000000" stroke-width="3" stroke-miterlimit="8" fill="#FFC000"/><rect x="586.5" y="411.5" width="38" height="189" stroke="#000000" stroke-width="2.66667" stroke-miterlimit="8" fill="#92D050"/><rect x="586.5" y="222.5" width="38" height="189" stroke="#000000" stroke-width="2.66667" stroke-miterlimit="8" fill="#92D050"/><rect x="208.5" y="184.5" width="189" height="38" stroke="#000000" stroke-width="2.66667" stroke-miterlimit="8" fill="#FFFF00"/><rect x="623.5" y="411.5" width="38" height="189" stroke="#000000" stroke-width="2.66667" stroke-miterlimit="8" fill="#92D050"/><rect x="623.5" y="222.5" width="38" height="189" stroke="#000000" stroke-width="2.66667" stroke-miterlimit="8" fill="#92D050"/><rect x="660.5" y="411.5" width="38" height="189" stroke="#000000" stroke-width="2.66667" stroke-miterlimit="8" fill="#92D050"/><rect x="660.5" y="222.5" width="38" height="189" stroke="#000000" stroke-width="2.66667" stroke-miterlimit="8" fill="#92D050"/><rect x="397.5" y="184.5" width="189" height="38" stroke="#000000" stroke-width="2.66667" stroke-miterlimit="8" fill="#FFFF00"/><rect x="208.5" y="146.5" width="189" height="38" stroke="#000000" stroke-width="2.66667" stroke-miterlimit="8" fill="#FFFF00"/><rect x="397.5" y="146.5" width="189" height="38" stroke="#000000" stroke-width="2.66667" stroke-miterlimit="8" fill="#FFFF00"/><rect x="623.5" y="184.5" width="38" height="38" stroke="#000000" stroke-width="2.66667" stroke-miterlimit="8" fill="#00B0F0"/><rect x="586.5" y="184.5" width="38" height="38" stroke="#000000" stroke-width="2.66667" stroke-miterlimit="8" fill="#00B0F0"/><rect x="660.5" y="184.5" width="38" height="38" stroke="#000000" stroke-width="2.66667" stroke-miterlimit="8" fill="#00B0F0"/><rect x="623.5" y="146.5" width="38" height="38" stroke="#000000" stroke-width="2.66667" stroke-miterlimit="8" fill="#00B0F0"/><rect x="586.5" y="146.5" width="38" height="38" stroke="#000000" stroke-width="2.66667" stroke-miterlimit="8" fill="#00B0F0"/><rect x="660.5" y="146.5" width="38" height="38" stroke="#000000" stroke-width="2.66667" stroke-miterlimit="8" fill="#00B0F0"/><path d="M2-3.7037e-07 2.0001 556.929-1.9999 556.929-2 3.7037e-07ZM6.0001 554.929 0.000104987 566.929-5.9999 554.929Z" transform="matrix(1 0 0 -1 207 661.929)"/><path d="M155 598 749.724 598 749.724 602 155 602ZM747.724 594 759.724 600 747.724 606Z"/><text font-family="Cambria Math,Cambria Math_MSFontService,sans-serif" font-weight="400" font-size="24" transform="translate(585.046 627)">ğ‘›<tspan font-size="18" x="14.2466" y="-8">0</tspan><tspan font-size="18" x="24.4133" y="-8">.</tspan><tspan font-size="18" x="28.08" y="-8">5</tspan><tspan font-size="24" x="-426.275" y="-412">ğ‘›</tspan><tspan font-size="18" x="-412.029" y="-421">0</tspan><tspan font-size="18" x="-401.862" y="-421">.</tspan><tspan font-size="18" x="-398.195" y="-421">5</tspan><tspan font-size="24" x="95.4601" y="0">&lt;</tspan><tspan font-size="24" x="120.127" y="0">ğ‘›</tspan><tspan font-size="18" x="134.373" y="-9">0</tspan><tspan font-size="18" x="144.54" y="-9">.</tspan><tspan font-size="18" x="148.207" y="-9">5</tspan><tspan font-size="24" x="-451.753" y="-481">&lt;</tspan><tspan font-size="24" x="-427.087" y="-481">ğ‘›</tspan><tspan font-size="18" x="-412.84" y="-490">0</tspan><tspan font-size="18" x="-402.673" y="-490">.</tspan><tspan font-size="18" x="-399.007" y="-490">5</tspan></text></g></svg>