<svg width="146" height="447" xmlns="http://www.w3.org/2000/svg" xmlns:xlink="http://www.w3.org/1999/xlink" overflow="hidden"><defs><clipPath id="clip0"><rect x="657" y="219" width="146" height="447"/></clipPath></defs><g clip-path="url(#clip0)" transform="translate(-657 -219)"><path d="M2-4.84476e-07 2.0001 423.404-1.9999 423.404-2 4.84476e-07ZM6.0001 421.404 0.000104987 433.404-5.9999 421.404Z" transform="matrix(1 0 0 -1 694 664.404)"/><path d="M658 624 780.086 624 780.086 628 658 628ZM778.086 620 790.086 626 778.086 632Z"/><path d="M676 572 732.693 572" stroke="#000000" stroke-width="4" stroke-miterlimit="8" fill="none" fill-rule="evenodd"/><path d="M676 463 732.693 463" stroke="#000000" stroke-width="4" stroke-miterlimit="8" fill="none" fill-rule="evenodd"/><path d="M676 517 732.693 517" stroke="#000000" stroke-width="4" stroke-miterlimit="8" fill="none" fill-rule="evenodd"/><path d="M676 408 732.693 408" stroke="#000000" stroke-width="4" stroke-miterlimit="8" fill="none" fill-rule="evenodd"/><path d="M676 354 732.693 354" stroke="#000000" stroke-width="4" stroke-miterlimit="8" fill="none" fill-rule="evenodd"/><path d="M676 300 732.693 300" stroke="#000000" stroke-width="4" stroke-miterlimit="8" fill="none" fill-rule="evenodd"/><text font-family="Cambria Math,Cambria Math_MSFontService,sans-serif" font-weight="400" font-size="32" transform="translate(705.779 256)">𝑦</text></g></svg>