<svg width="820" height="217" xmlns="http://www.w3.org/2000/svg" xmlns:xlink="http://www.w3.org/1999/xlink" overflow="hidden"><defs><clipPath id="clip0"><rect x="4" y="15" width="820" height="217"/></clipPath><clipPath id="clip1"><rect x="89" y="17" width="50" height="214"/></clipPath><clipPath id="clip2"><rect x="89" y="17" width="50" height="214"/></clipPath><clipPath id="clip3"><rect x="89" y="17" width="50" height="214"/></clipPath><clipPath id="clip4"><rect x="89" y="63" width="50" height="17"/></clipPath><clipPath id="clip5"><rect x="89" y="168" width="50" height="17"/></clipPath></defs><g clip-path="url(#clip0)" transform="translate(-4 -15)"><rect x="142.5" y="17.5001" width="680" height="75" stroke="#000000" stroke-width="3" stroke-miterlimit="8" fill="none"/><rect x="142.5" y="92.5001" width="680" height="76" stroke="#000000" stroke-width="3" stroke-miterlimit="8" fill="none"/><text font-family="Cambria Math,Cambria Math_MSFontService,sans-serif" font-weight="400" font-size="32" transform="translate(399.765 66)">𝑛<tspan font-size="32" x="25.9933" y="0">×</tspan><tspan font-size="32" x="55.94" y="0">𝑛</tspan><tspan font-size="23" x="74.82" y="-12">0</tspan><tspan font-size="23" x="88.32" y="-12">.</tspan><tspan font-size="23" x="93.1534" y="-12">75</tspan><tspan font-size="37" x="66.033" y="155">⋯</tspan></text><g clip-path="url(#clip1)"><g clip-path="url(#clip2)"><g clip-path="url(#clip3)"><path d="M39.5521 49.9401 39.8854 49.6068 39.8854 48.6625 39.8854 48.0514C39.8854 47.644 39.6262 47.2922 39.1077 46.9959 36.2561 45.0331 33.9045 42.5148 32.0528 39.441 30.2011 36.3672 28.9605 32.9416 28.3309 29.1641 28.3309 29.1271 28.3124 29.053 28.2753 28.9419 28.1272 27.905 28.0346 24.7201 27.9976 19.3872 27.9976 19.2391 27.9976 18.9613 27.9976 18.5539 27.9976 16.443 27.9976 14.7024 27.9976 13.3322 27.9976 4.36999 27.9791-0.148135 27.942-0.222203 27.905-0.370338 27.7383-0.462923 27.4421-0.499957 27.1458-0.536991 26.22-0.555507 24.6645-0.555507 22.7388-0.555507 21.7389-0.536991 21.6648-0.499957 21.5537-0.462923 21.4796-0.388855 21.4426-0.277754 21.3685 0.0925846 21.3315 4.44406 21.3315 12.7767 21.3315 13.9618 21.3315 15.4801 21.3315 17.3318 21.3315 19.1835 21.313 20.4797 21.2759 21.2204 21.2759 24.8867 21.4426 27.7198 21.7759 29.7197 22.1092 31.7195 22.8869 33.96 24.109 36.4413 26.9236 41.9964 31.1825 46.3664 36.8857 49.5513L37.6079 49.9401 39.5521 49.9401Z" transform="matrix(1.01246 0 0 -1 89 68.3937)"/><path d="M39.8854-49.6068 39.5521-49.9401 37.6079-49.9401 36.9968-49.6068C32.4046-47.0885 28.7383-43.774 25.9977-39.6632 23.2572-35.5525 21.7203-31.1455 21.387-26.4422 21.35-26.0718 21.3315-22.4795 21.3315-15.6653 21.3315-5.11067 21.35 0.203686 21.387 0.277754L21.6092 0.499957C21.7203 0.536991 22.7388 0.555507 24.6645 0.555507 26.22 0.555507 27.1458 0.536991 27.4421 0.499957 27.7383 0.462923 27.905 0.370338 27.942 0.222203 27.9791 0.148135 27.9976-4.35148 27.9976-13.2766L27.9976-17.2207 27.9976-20.3316C27.9976-24.1831 28.0716-26.9051 28.2198-28.4975 28.3679-30.09 28.7753-31.8676 29.4419-33.8304 30.0344-35.608 30.7566-37.256 31.6084-38.7744 32.4602-40.2928 33.349-41.5705 34.2748-42.6074 35.2007-43.6444 36.0154-44.4776 36.719-45.1072 37.4227-45.7368 38.1263-46.3108 38.83-46.8293 39.5336-47.3478 39.8669-47.5885 39.8299-47.5514 39.7929-47.5144 39.8114-47.8847 39.8854-48.6625L39.8854-49.6068Z" transform="matrix(1.01246 0 0 -1 89 179.606)"/><path d="M21.6092 64.3833C21.6833 64.4203 22.9054 64.4389 25.2756 64.4389 26.794 64.4389 27.5902 64.4203 27.6643 64.3833 27.7754 64.3463 27.8494 64.2722 27.8865 64.1611 27.9605 63.7908 27.9976 59.5134 27.9976 51.3289 27.9976 42.7 27.9791 38.2189 27.942 37.8856 27.6087 32.9601 26.1644 28.4605 23.6091 24.3868 21.0537 20.3131 17.6837 16.98 13.4988 14.3876L12.7211 13.8877 13.4988 13.3877C17.4244 10.9435 20.7204 7.70304 23.3869 3.66635 26.0533-0.370338 27.5717-4.96253 27.942-10.1102 27.9791-10.4435 27.9976-14.9246 27.9976-23.5535 27.9976-30.0715 27.9976-33.8674 27.9976-34.9414 27.9976-36.0154 27.905-36.5709 27.7198-36.6079L27.6643-36.6079C27.5902-36.645 26.5903-36.6635 24.6645-36.6635 22.7388-36.6635 21.7389-36.645 21.6648-36.6079 21.5537-36.5709 21.4796-36.4968 21.4426-36.3857 21.3685-36.0154 21.3315-31.7565 21.3315-23.6091L21.3315-15.6653C21.3315-11.7397 21.2019-8.66592 20.9426-6.44389 20.6834-4.22186 20.0353-1.88873 18.9984 0.555507 18.3688 2.185 17.6096 3.70338 16.7208 5.11067 15.832 6.51795 14.9802 7.68452 14.1654 8.61037 13.3507 9.53621 12.5915 10.2954 11.8879 10.8879 11.1842 11.4805 10.6102 11.9619 10.1658 12.3323 9.72138 12.7026 9.49918 12.8878 9.49918 12.8878 9.46214 12.9248 9.44363 13.2581 9.44363 13.8877 9.44363 14.5173 9.46214 14.8506 9.49918 14.8876 9.49918 14.9246 9.86952 15.2209 10.6102 15.7764 11.3509 16.3319 12.2582 17.2022 13.3322 18.3873 14.4062 19.5724 15.5172 20.9797 16.6652 22.6092 17.8133 24.2386 18.8132 26.4051 19.665 29.1086 20.5167 31.8121 21.0537 34.6822 21.2759 37.719 21.313 38.1634 21.3315 42.7185 21.3315 51.3844 21.3315 59.7911 21.35 64.05 21.387 64.1611L21.6092 64.3833Z" transform="matrix(1.01246 0 0 -1 89 137.888)"/><g clip-path="url(#clip4)"><path d="M21.5973 8.43645 21.5973 14.9606C21.5973 16.3855 21.691 17.1916 21.8785 17.3791 21.9535 17.4166 23.1909 17.4353 25.5906 17.4353 27.1279 17.4353 27.934 17.4166 28.009 17.3791 28.159 17.3416 28.2527 17.1354 28.2902 16.7604 28.3277 16.198 28.3465 13.4233 28.3465 8.43645 28.3465 4.012 28.3465 1.42482 28.3465 0.674916 28.3465-0.0749906 28.2527-0.468691 28.0652-0.506187L28.009-0.506187C27.934-0.543682 26.9216-0.56243 24.9719-0.56243 23.0221-0.56243 22.0097-0.543682 21.9348-0.506187 21.7848-0.468691 21.691-0.262467 21.6535 0.112486 21.616 0.674916 21.5973 3.44957 21.5973 8.43645Z" transform="matrix(1 0 0 -1.36499 89 81.7537)"/></g><g clip-path="url(#clip5)"><path d="M21.5973 8.43645 21.5973 14.9606C21.5973 16.3855 21.691 17.1916 21.8785 17.3791 21.9535 17.4166 23.1909 17.4353 25.5906 17.4353 27.1279 17.4353 27.934 17.4166 28.009 17.3791 28.159 17.3416 28.2527 17.1354 28.2902 16.7604 28.3277 16.198 28.3465 13.4233 28.3465 8.43645 28.3465 4.012 28.3465 1.42482 28.3465 0.674916 28.3465-0.0749906 28.2527-0.468691 28.0652-0.506187L28.009-0.506187C27.934-0.543682 26.9216-0.56243 24.9719-0.56243 23.0221-0.56243 22.0097-0.543682 21.9348-0.506187 21.7848-0.468691 21.691-0.262467 21.6535 0.112486 21.616 0.674916 21.5973 3.44957 21.5973 8.43645Z" transform="matrix(1 0 0 -1.36499 89 187.356)"/></g></g></g></g><text font-family="Cambria Math,Cambria Math_MSFontService,sans-serif" font-weight="400" font-size="32" transform="translate(9.34431 135)">𝑛<tspan font-size="32" x="25.9933" y="0">×</tspan><tspan font-size="32" x="55.94" y="0">𝑛</tspan></text><rect x="142.5" y="92.5001" width="226" height="38" stroke="#000000" stroke-width="2.66667" stroke-miterlimit="8" fill="#FFFF00"/><rect x="368.5" y="92.5001" width="227" height="38" stroke="#000000" stroke-width="2.66667" stroke-miterlimit="8" fill="#FFFF00"/><rect x="595.5" y="92.5001" width="227" height="38" stroke="#000000" stroke-width="2.66667" stroke-miterlimit="8" fill="#FFFF00"/><rect x="142.5" y="130.5" width="226" height="38" stroke="#000000" stroke-width="2.66667" stroke-miterlimit="8" fill="#FFFF00"/><rect x="368.5" y="130.5" width="227" height="38" stroke="#000000" stroke-width="2.66667" stroke-miterlimit="8" fill="#FFFF00"/><rect x="595.5" y="130.5" width="227" height="38" stroke="#000000" stroke-width="2.66667" stroke-miterlimit="8" fill="#FFFF00"/><text font-family="Cambria Math,Cambria Math_MSFontService,sans-serif" font-weight="400" font-size="32" transform="translate(177.714 126)">𝑛<tspan font-size="23" x="18.88" y="-12">0</tspan><tspan font-size="23" x="32.38" y="-12">.</tspan><tspan font-size="23" x="37.2133" y="-12">75</tspan><tspan font-size="32" x="72.6533" y="0">×</tspan><tspan font-size="32" x="102.6" y="0">𝑛</tspan><tspan font-size="23" x="121.48" y="-12">0</tspan><tspan font-size="23" x="134.98" y="-12">.</tspan><tspan font-size="23" x="139.813" y="-12">5</tspan></text></g></svg>